<?xml version="1.0" encoding="UTF-8"?>
<svg width="104px" height="104px" viewBox="0 0 104 104" version="1.1" xmlns="http://www.w3.org/2000/svg" xmlns:xlink="http://www.w3.org/1999/xlink" style="background: #FFFFFF;">
    <!-- Generator: Sketch 46.2 (44496) - http://www.bohemiancoding.com/sketch -->
    <title>Artboard 3</title>
    <desc>Created with Sketch.</desc>
    <defs></defs>
    <g id="Page-1" stroke="none" stroke-width="1" fill="none" fill-rule="evenodd">
        <g id="Artboard-3">
            <path d="M103.5,10.5 L103.5,93.5" id="Line" stroke="#E3E3E3" stroke-linecap="round"></path>
            <g id="manos" transform="translate(37.000000, 12.000000)">
                <g id="Group-29">
                    <path d="M0.135775411,5.66867193 C0.130978013,6.66862672 -0.0381981491,29.5321633 0.135775411,30.5992541 C0.309748972,31.6662563 0.96165198,33.4102873 1.68062804,34.0052117 C2.3996041,34.6000475 3.28748478,35.471753 4.67465689,35.4923898 C6.06182901,35.5130266 7.69176757,35.1842549 8.32303271,34.7157199 C8.95420734,34.2471848 10.1627895,33.0635359 10.4158749,32.1881991 C10.6690508,31.3128622 10.7615591,29.2498023 10.7615591,29.2498023 C10.7615591,29.2498023 12.8403712,28.4963377 13.9558114,28.1662375 C15.0711612,27.8359601 17.2955245,25.8556245 17.4617136,25.0727547 C17.6279932,24.2898848 17.8169021,23.0927733 17.4617136,22.6138756 C17.1066156,22.1349779 16.3565017,21.1917964 15.382811,21.465389 C14.4091203,21.7389816 13.9699321,21.9508409 13.5386188,22.5961616 C13.1073056,23.2414823 12.1308994,24.4238912 11.2518894,24.5547976 C10.3728794,24.685704 8.74538476,24.415477 8.32303271,23.9797129 C7.90059015,23.5440373 6.87974009,22.4113161 6.57967643,20.7702034 C6.27952226,19.1291793 6.77356372,17.4335075 7.42990206,16.6643661 C8.08633091,15.8953131 9.19679274,14.9727685 9.96528157,14.9653286 C10.7337704,14.9578887 11.4950179,14.9942024 12.0699815,15.4355465 C12.6449451,15.8768906 13.1035039,16.7955382 13.747713,17.2458278 C14.3920126,17.6960289 15.9632056,18.0314433 16.496984,17.5927563 C17.0306719,17.1540693 17.9083242,16.463578 17.6632948,15.688148 C17.418356,14.9128066 16.9594351,13.9241888 16.1913083,13.189501 C15.4232721,12.4547247 14.2373191,11.3768283 12.9909914,11.0363654 C11.7445731,10.6959025 10.6553827,10.530011 10.0624968,10.5765102 C9.4696108,10.6230095 8.78928548,10.5696018 8.78928548,10.5696018 C8.78928548,10.5696018 11.1383811,3.7290785 11.3566175,3.00670195 C11.5748538,2.28432541 11.6657328,0.753128036 10.7615591,0.413727971 C9.85729486,0.0742393357 8.56335519,0.0408484629 8.32303271,0.413727971 C8.0825292,0.786607478 4.08367179,10.9438098 4.08367179,10.9438098 C4.08367179,10.9438098 4.1548181,6.17998628 4.08367179,5.66867193 C4.01243496,5.15735758 3.66041457,4.04996745 2.88513697,3.89355291 C2.10967834,3.73722694 1.09987135,3.86857618 0.772833641,4.25119838 C0.445795934,4.63382058 0.138852987,5.0329168 0.135775411,5.66867193" id="Fill-1" fill="#F3CBBC"></path>
                    <path d="M5.73894603,35.4933021 C5.73894603,35.4933021 8.89192264,34.5378094 8.64363467,31.0439018 C8.51003166,29.162676 7.34806569,28.6044196 7.34806569,28.6044196 C7.34806569,28.6044196 8.54479017,29.118391 9.60166597,29.2125409 L10.6585418,29.3066908 C10.6585418,29.3066908 10.5164302,32.3441088 9.97839748,33.0572741 C7.81078829,35.9308376 5.73894603,35.4933021 5.73894603,35.4933021" id="Fill-3" fill="#DEB0A8"></path>
                    <path d="M9.77477057,24.76795 L8.00525489,23.5544531 L6.57970359,20.7702566 L6.63365168,22.3499903 C6.63365168,22.3499903 7.80168229,24.5087058 9.58758153,26.4692903 C11.1836668,28.2215583 13.1712377,28.6043576 13.1712377,28.6043576 L14.0145841,28.0166074 C14.0145841,28.0166074 12.096168,26.9192256 11.4671658,26.3005645 C10.8380731,25.6819034 9.77477057,24.76795 9.77477057,24.76795" id="Fill-5" fill="#DEB0A8"></path>
                    <path d="M1.29994999,3.89359719 C1.29994999,3.89359719 1.88749546,3.94700487 2.31745093,4.19810069 C2.87820338,4.52545525 3.31657692,5.15013913 3.31657692,6.03327015 L3.31657692,12.9936286 L4.08361748,10.9437656 C4.08361748,10.9437656 4.17866027,6.59666363 4.08361748,5.66871622 C3.98857469,4.74068023 3.44972734,3.89359719 2.88508266,3.89359719 L1.29994999,3.89359719 Z" id="Fill-7" fill="#DEB0A8"></path>
                    <path d="M9.28250324,0.146459276 C9.28250324,0.146459276 9.81247992,0.400300766 10.1234056,0.784251518 C10.529012,1.28502604 10.7124899,2.0212195 10.3923314,2.84695718 C10.1202375,3.54851979 7.35250102,11.0399437 7.35250102,11.0399437 L8.78927642,10.5696372 C8.78927642,10.5696372 10.9939976,3.67296058 11.2416519,2.77229271 C11.4892157,1.87171342 11.2924319,0.892661142 10.7645371,0.696655833 C9.49901976,0.226792225 9.28250324,0.146459276 9.28250324,0.146459276" id="Fill-9" fill="#DEB0A8"></path>
                    <path d="M0.492013884,7.66923692 C0.542884405,8.45308101 0.586875638,10.3623835 0.73595704,13.7151106 C0.854534232,16.3817748 0.808189558,17.8713442 0.975736416,23.2270808 C1.18274866,29.8452935 0.932197767,31.8340433 3.61937419,34.2154236 C5.11136493,35.5375959 7.13858234,35.3499162 7.13858234,35.3499162 C7.13858234,35.3499162 4.3770915,36.0407618 2.38526622,34.7982139 C0.988227754,33.9266856 0.183622666,31.68498 0.0573515337,29.387564 C-0.0239326792,27.9080915 0.0858643701,16.5382779 0.135739205,12.236258 C0.140536602,11.8290134 0.202359673,7.16589387 0.203898461,6.96767431 C0.218652722,5.11603084 0.492013884,7.66923692 0.492013884,7.66923692" id="Fill-11" fill="#FEFEFE" opacity="0.6"></path>
                    <g id="uña" transform="translate(0.000000, 0.610451)" fill="#F7F7F7">
                        <path d="M7.26200218,2.81797641 C7.26200218,2.81797641 7.92856894,0.945961859 8.02270656,0.649872502 C8.08968909,0.43925315 8.21306368,0.181071733 8.64292863,0.332526355 L8.92932424,0.408785086 C9.7359207,0.733305399 9.6435029,1.34948657 9.36688313,2.05503483 L9.20277591,2.50071884 C8.74503174,3.58933215 8.88660024,3.39058117 7.26200218,2.81797641" id="Fill-13"></path>
                        <path d="M0.35579494,7.24807725 C0.35579494,7.24807725 0.348191516,5.2657931 0.336333797,4.95588683 C0.327825205,4.73543621 0.356428558,4.45183522 0.813448593,4.4548466 L1.10934847,4.43350124 C1.98030248,4.47716623 2.10268138,5.08829891 2.08150042,5.84371205 L2.07824181,6.31738417 C2.01659977,7.49306174 2.0824961,7.25950277 0.35579494,7.24807725" id="Fill-17"></path>
                    </g>
                    <path d="M7.26200218,3.42842779 C7.26200218,3.42842779 7.92856894,1.55641324 8.02270656,1.26032388 C8.08968909,1.04970453 8.21306368,0.791523111 8.64292863,0.942977733 L8.92932424,1.01923646 C9.7359207,1.34375678 9.6435029,1.95993795 9.36688313,2.6654862 L9.20277591,3.11117021 C8.74503174,4.19978352 8.88660024,4.00103255 7.26200218,3.42842779 Z" id="Stroke-15" stroke="#5F2EB1" stroke-width="0.5" stroke-linecap="round"></path>
                    <path d="M0.35579494,7.85852862 C0.35579494,7.85852862 0.348191516,5.87624448 0.336333797,5.56633821 C0.327825205,5.34588759 0.356428558,5.0622866 0.813448593,5.06529797 L1.10934847,5.04395262 C1.98030248,5.0876176 2.10268138,5.69875029 2.08150042,6.45416343 L2.07824181,6.92783554 C2.01659977,8.10351312 2.0824961,7.86995415 0.35579494,7.85852862 Z" id="Stroke-19" stroke="#5F2EB1" stroke-width="0.5" stroke-linecap="round"></path>
                    <path d="M0.135775411,23.9797306 L0.135775411,5.66868965 C0.135775411,4.60638161 1.02401815,3.73724465 2.10967834,3.73724465 C3.19533853,3.73724465 4.08367179,4.60638161 4.08367179,5.66868965 L4.08367179,11.5726742" id="Stroke-21" stroke="#5F2EB1" stroke-width="0.84" stroke-linecap="round"></path>
                    <path d="M3.61940135,12.9936374 L7.78897371,1.28114668 C8.18842497,0.293325975 9.34115821,-0.195048753 10.3506937,0.195810455 C11.3602291,0.586581094 11.8593395,1.71460803 11.4599788,2.70242873 L8.78927642,10.5696549" id="Stroke-23" stroke="#5F2EB1" stroke-width="0.84" stroke-linecap="round"></path>
                    <path d="M8.64485665,10.7652971 C9.20588065,10.6358964 9.78410286,10.5696461 10.3729156,10.5696461 C13.1325055,10.5696461 15.7061737,12.0748039 17.2575436,14.5958591 C17.8933346,15.628939 17.5528098,16.9706852 16.4970202,17.592712 C15.4414117,18.2148274 14.0699895,17.8816272 13.4341985,16.8484587 C12.6865286,15.6334561 11.5707262,14.9366762 10.3729156,14.9366762 C9.41099203,14.9366762 8.48418908,15.3961772 7.76304061,16.2304176 C6.95110365,17.1697905 6.50394996,18.4414779 6.50394996,19.8111237 C6.50394996,21.180858 6.95110365,22.452634 7.76304061,23.3920069 C8.48418908,24.2262473 9.41099203,24.6856597 10.3729156,24.6856597 C11.6218683,24.6856597 12.8052868,23.9045613 13.5386551,22.5962059 C14.1312695,21.5387692 15.4878469,21.1517185 16.5682571,21.7316746 C17.6488483,22.3115421 18.0444073,23.6387628 17.4517929,24.6961109 C15.9228713,27.4240655 13.276518,29.0527784 10.3729156,29.0527784 C8.73419687,29.0527784 7.17694342,28.5393384 5.84399094,27.5799486" id="Stroke-25" stroke="#5F2EB1" stroke-width="0.84" stroke-linecap="round"></path>
                    <path d="M10.7615319,29.2498111 L10.7615319,30.3494957 C10.7615319,33.208711 8.37070799,35.5480206 5.4486401,35.5480206 C2.52657222,35.5480206 0.135748256,33.208711 0.135748256,30.3494957 L0.135748256,23.2270542" id="Stroke-27" stroke="#5F2EB1" stroke-width="0.84" stroke-linecap="round"></path>
                </g>
                <g id="Group-81" transform="translate(6.818182, 5.420448)">
                    <path d="M20.0048904,0.589047615 C20.5796141,1.23169612 22.244783,6.29619852 22.520399,8.29837012 C22.795924,10.3004539 23.4898355,15.1255882 22.520399,19.9710138 C21.5508716,24.8163517 20.5280783,28.9814448 19.8227853,29.5288731 C19.1174923,30.0763014 17.8033309,30.6188985 17.3206614,30.359766 C16.8379008,30.1005457 15.6045031,29.0802665 15.49524,28.7975047 C15.3858859,28.5149185 15.2885507,28.3321204 15.2885507,28.3321204 C15.2885507,28.3321204 13.8190537,31.5174293 13.375992,32.1690376 C12.9328393,32.820646 12.2005037,33.7975314 11.2546499,33.7171564 C10.3088871,33.6368693 9.34719012,33.2587994 9.08077038,32.8401468 C8.81435064,32.4214941 8.5160625,31.4065733 8.83957219,30.2793032 C9.16308188,29.152033 10.4280749,27.4321841 10.8114971,26.3396992 C11.1950105,25.2470386 11.9316255,23.0766505 11.9316255,23.0766505 C11.9316255,23.0766505 11.5866274,23.2169334 10.2746513,23.0766505 C8.96276628,22.9365433 6.71331318,22.2724615 5.91769605,21.6443946 C5.12207892,21.01624 3.97290476,19.9054841 3.64329455,19.3083375 C3.31377539,18.7111909 3.12129032,17.4487326 3.26788491,16.9797468 C3.41438846,16.510761 4.47906585,15.7344177 5.25018985,15.807414 C6.02122279,15.8803224 6.79972204,16.0715534 7.23413373,16.6899577 C7.66845437,17.3083619 8.41836312,18.417361 9.42112479,18.5814489 C10.4237954,18.7455369 12.317142,18.3263572 12.863002,17.6613969 C13.4089531,16.9963488 14.2589286,15.9174794 14.2732238,14.6249794 C14.2876101,13.3324794 13.9692904,11.417183 13.3168989,10.6953015 C12.6645075,9.97350776 11.5098702,9.1730959 10.9668328,9.12487091 C10.4237954,9.07673376 9.03196622,9.31012866 8.58708349,9.6595622 C8.1421097,10.0089957 7.21665164,11.4479276 6.73161474,11.7527376 C6.24657784,12.0576355 5.29507875,12.4354418 4.71889825,12.2072296 C4.14271776,11.9790173 3.10790559,11.2853329 3.02604936,10.634603 C2.94419312,9.98387306 3.52228572,8.58332799 4.00632104,8.00392537 C4.49044742,7.42443491 5.6831447,5.86270066 6.97090083,5.38941059 C8.25856591,4.91620836 10.6099068,4.74790403 10.6099068,4.74790403 C10.6099068,4.74790403 10.3285544,3.9020781 10.7324635,2.93142939 C11.1363726,1.96069283 14.4550557,1.7058646 15.1173719,1.25251456 C15.7795971,0.799164513 19.1009208,-0.42174467 20.0048904,0.589047615" id="Fill-30" fill="#F3CBBC"></path>
                    <path d="M3.27536033,10.5322061 C3.27536033,10.5322061 4.30070303,10.3485295 5.03322074,10.890336 C5.76573846,11.4322303 6.22072802,12.1903025 6.22072802,12.1903025 L7.01233884,11.5847231 C7.01233884,11.5847231 6.22127434,10.1297163 5.59037126,9.84388004 C4.95955923,9.55795592 3.23538826,9.23707088 3.23538826,9.23707088 L3.27536033,10.5322061 Z" id="Fill-32" fill="#CEA99F"></path>
                    <path d="M11.5003187,33.4590605 C11.5003187,33.4590605 9.59040057,33.6645218 9.08077948,32.8401292 C8.5711584,32.0156488 8.22306452,30.8238151 9.00274745,29.8280437 C9.78252144,28.8321845 10.5039307,27.0305551 10.8115062,26.3396816 C11.1190817,25.6487203 11.9315436,23.0767208 11.9315436,23.0767208 L13.2775733,22.5365833 C13.2775733,22.5365833 12.5489709,25.4668883 11.5438419,27.7144891 C10.7844636,29.4124656 9.84789717,30.5562499 9.84780612,31.5554471 C9.84762401,33.3431976 11.5003187,33.4590605 11.5003187,33.4590605" id="Fill-34" fill="#DAB1AC"></path>
                    <path d="M10.7329552,9.12490605 L9.4064107,7.54700896 C9.4064107,7.54700896 10.7851283,7.47884394 12.1918901,8.21680049 C13.2765991,8.78583781 14.0258705,9.41293837 14.5031679,10.6790859 C14.8619149,11.6305852 14.877576,12.5561712 14.7134082,14.4888602 C14.5425026,16.5011335 13.311108,17.3252626 13.311108,17.3252626 C13.311108,17.3252626 14.3094991,14.9862188 13.9926363,13.0212042 C13.6757734,11.0561895 13.0352188,10.1940251 12.1560154,9.75174308 C11.2768121,9.30946107 10.7329552,9.12490605 10.7329552,9.12490605" id="Fill-36" fill="#DAB1AC"></path>
                    <path d="M12.4903422,2.07214614 C12.4903422,2.07214614 10.3474205,2.45285126 10.4298231,3.09927695 C10.5121346,3.7456148 10.609925,4.74788646 10.609925,4.74788646 C10.609925,4.74788646 11.2865365,4.60356285 12.200704,4.94869215 C13.1149626,5.29382146 15.2819221,5.99084386 15.2819221,5.99084386 C15.2819221,5.99084386 13.541999,5.00526209 12.8548255,3.68210539 C12.4440875,2.89118041 12.4903422,2.07214614 12.4903422,2.07214614" id="Fill-38" fill="#DAB1AC"></path>
                    <path d="M19.0391416,29.8971838 C19.0391416,29.8971838 17.95334,30.6058891 17.3206159,30.3597572 C15.8218,29.7764896 15.2100179,29.0879878 15.2885963,28.3321116 C15.3671746,27.5760597 16.1605154,25.6626958 16.4438709,24.4052446 C16.7271354,23.1478812 17.5538014,21.229159 17.5538014,21.229159 C17.5538014,21.229159 17.3101448,23.0893787 16.9983809,24.5832115 C16.6715933,26.1494257 16.2536622,27.5108813 16.5052403,28.2963601 C17.1275845,30.2391508 19.0391416,29.8971838 19.0391416,29.8971838" id="Fill-40" fill="#DAB1AC"></path>
                    <path d="M6.2730286,16.1155093 C6.2730286,16.1155093 7.01228421,18.1768861 7.95886646,18.891916 C9.42572294,20.0000367 11.661245,19.745472 12.6989708,18.9502427 C13.7367877,18.1551014 14.3186135,16.801815 14.4640244,15.7961176 C14.6095264,14.7904201 14.0339833,15.9065343 13.7530862,16.4036295 C13.472098,16.9007246 12.1618519,18.5517058 11.0402667,18.6825018 C9.91868142,18.8132978 8.73080993,18.6254048 8.14889312,17.9010637 C7.56697631,17.1768105 6.2730286,16.1155093 6.2730286,16.1155093" id="Fill-42" fill="#FEFEFE" opacity="0.6"></path>
                    <path d="M17.7689404,0.383516044 C17.7689404,0.383516044 18.7981984,0.56104374 19.494113,2.31488738 C20.7242328,5.41507788 21.5142957,8.86039769 21.9397843,12.1707051 C22.6630146,17.7970418 20.7416239,26.4140307 20.7416239,26.4140307 C20.7416239,26.4140307 23.1562463,20.9845468 22.9797864,10.4868711 C22.9267028,7.33037422 20.5797324,0.994102397 19.8885526,0.277930546 C19.3987809,-0.229529872 17.7689404,0.383516044 17.7689404,0.383516044" id="Fill-44" fill="#FEFEFE" opacity="0.6"></path>
                    <path d="M20.6697288,27.610476 C22.2256346,23.2445771 23.0065013,18.792945 23.0065013,14.2739383 C23.0065013,9.7019633 22.1262963,5.46563067 20.5944283,1.50081616 C20.1084809,0.242925703 19.8648243,-0.0928923995 18.4428567,0.214377211 C17.5672954,0.403499988 11.9525403,2.13634951 11.3429435,2.35261531 C10.1975025,2.75897015 10.3145961,3.01950807 10.6768942,4.39809277" id="Stroke-46" stroke="#5F2EB1" stroke-width="0.84" stroke-linecap="round"></path>
                    <path d="M22.2474964,21.9269457 C22.1217528,22.6818556 21.8568809,23.7033646 21.5508533,24.8164044 C20.9465376,27.0142868 20.2865888,28.7392306 20.2588177,28.8115242 C19.8913297,29.7680304 18.9522137,30.3597309 17.9533673,30.3597309 C17.6695565,30.3597309 17.381011,30.3119451 17.0992945,30.2112787 C16.2584242,29.9105972 15.6895279,29.2130477 15.5361954,28.4202781 C15.5121576,28.2960702 15.4633534,28.0064567 15.518167,27.7321277" id="Stroke-48" stroke="#5F2EB1" stroke-width="0.84" stroke-linecap="round"></path>
                    <path d="M11.8306574,23.005657 C11.7579974,23.2893851 11.6842449,23.5683697 11.609946,23.8399757 C11.4650814,24.3694843 11.3228573,24.8520856 11.1857322,25.2754817 C11.0026255,25.8412689 10.8013994,26.3872917 10.5851496,26.9124961 C10.2161137,27.8086552 9.26106352,29.5278893 8.9901822,29.9880031 C8.3100197,31.143119 8.47746533,32.5565768 9.59158426,33.3053379 C10.7057032,34.0540111 12.2379354,33.789696 13.0140673,32.7148672 C13.0319136,32.6900959 13.0565888,32.655135 13.0875467,32.6099844 C13.1327998,32.544279 13.183334,32.4687353 13.238785,32.3837047 C13.3898411,32.1521545 13.5548283,31.8838865 13.7300134,31.5802184 C14.2192388,30.7325478 14.7041846,29.757507 15.1545305,28.6638802 C15.4157602,28.0294888 15.6584153,27.3710288 15.8790356,26.6895543 C16.0398344,26.1928984 16.2015437,25.6440647 16.3639814,25.0505196 C16.6031765,24.1763208 16.832811,23.2466063 17.0457829,22.3179458 C17.1200818,21.9936349 17.1872785,21.6921629 17.2459164,21.4209961 C17.281609,21.256469 17.3068305,21.1371802 17.3205795,21.0705963" id="Stroke-50" stroke="#5F2EB1" stroke-width="0.84" stroke-linecap="round"></path>
                    <path d="M14.1436469,22.1362544 C13.0048528,22.7518477 11.7404971,23.0766856 10.4237863,23.0766856 C7.64795844,23.0766856 5.0589704,21.583907 3.49842085,19.0835862 C2.85886778,18.0590028 3.20140745,16.7282917 4.26353538,16.1112929 C5.32529909,15.494382 6.70492724,15.8247539 7.34438926,16.8494251 C8.09648327,18.054435 9.21897904,18.7454842 10.4237863,18.7454842 C11.3914017,18.7454842 12.3237797,18.2898503 13.0491043,17.4624711 C13.8658456,16.530824 14.3157362,15.2695077 14.3157362,13.9111265 C14.3157362,12.5526575 13.8658456,11.2914291 13.0491043,10.359782 C12.3237797,9.53240282 11.3914017,9.07668106 10.4237863,9.07668106 C9.16753435,9.07668106 7.97702233,9.85135536 7.23931462,11.149038 C6.64319362,12.19769 5.27868019,12.5816452 4.19178597,12.006459 C3.1048007,11.4313606 2.70690108,10.1149677 3.30302209,9.0664036 C4.84108166,6.36079717 7.50300279,4.7454796 10.4237863,4.7454796 C12.0722016,4.7454796 13.6387606,5.25469685 14.9795093,6.20619611" id="Stroke-52" stroke="#5F2EB1" stroke-width="0.84" stroke-linecap="round"></path>
                    <g id="uña" transform="translate(3.157780, 18.162922)" fill="#F7F7F7">
                        <path d="M9.70915576,14.6561692 C9.59952849,14.8476637 9.4243434,15.074207 9.03227114,14.8427446 L8.76594245,14.7126513 C8.03879684,14.2391855 8.25768715,13.6589045 8.67680201,13.0277632 L8.93102072,12.6270303 C9.60799638,11.6592803 9.42734813,11.824598 10.9088641,12.6993238 C10.9088641,12.6993238 9.86348982,14.3870228 9.70915576,14.6561692 Z" id="Fill-54"></path>
                        <path d="M17.7373587,8.48301028 C17.7373587,8.48301028 17.0547378,10.3354999 16.95804,10.6286271 C16.8893864,10.837075 16.7636428,11.0923424 16.3321448,10.9394982 L16.0446009,10.8621098 C15.2353259,10.5352515 15.3322968,9.92484086 15.615106,9.2268522 L15.783098,8.78571213 C16.2505617,7.70886303 16.1069719,7.90510097 17.7373587,8.48301028" id="Fill-58"></path>
                        <path d="M2.14443755,2.82161601 C2.14443755,2.82161601 0.745688371,1.39190755 0.519149641,1.17537822 C0.357986638,1.02147989 0.179705757,0.797220512 0.517237538,0.496187649 L0.719556291,0.284401762 C1.38961196,-0.261796763 1.90897567,0.0994075369 2.42433307,0.660187753 L2.75485381,1.00522921 C3.53581148,1.89717193 3.4200837,1.68441979 2.14443755,2.82161601" id="Fill-62"></path>
                    </g>
                    <path d="M14.0666438,30.8622458 C14.0666438,30.8622458 13.0212695,32.5499448 12.8669355,32.8190912 C12.7573082,33.0105857 12.5821231,33.2371289 12.1900509,33.0056665 L11.9237222,32.8755733 C11.1965766,32.4021075 11.4154669,31.8218265 11.8345817,31.1906852 L12.0888004,30.7899522 C12.7657761,29.8222023 12.5851279,29.98752 14.0666438,30.8622458 Z" id="Stroke-56" stroke="#5F2EB1" stroke-width="0.5" stroke-linecap="round"></path>
                    <path d="M20.8951384,26.6459323 C20.8951384,26.6459323 20.2125175,28.4984219 20.1158197,28.791549 C20.0471661,28.9999969 19.9214225,29.2552644 19.4899245,29.1024201 L19.2023806,29.0250318 C18.3931056,28.6981735 18.4900765,28.0877628 18.7728857,27.3897742 L18.9408777,26.9486341 C19.4083415,25.871785 19.2647516,26.0680229 20.8951384,26.6459323 Z" id="Stroke-60" stroke="#5F2EB1" stroke-width="0.5" stroke-linecap="round"></path>
                    <path d="M5.30221727,20.984538 C5.30221727,20.984538 3.90346809,19.5548295 3.67692936,19.3383002 C3.51576636,19.1844019 3.33748548,18.9601425 3.67501726,18.6591096 L3.87733601,18.4473237 C4.54739168,17.9011252 5.06675539,18.2623295 5.58211279,18.8231097 L5.91263353,19.1681512 C6.6935912,20.0600939 6.57786342,19.8473418 5.30221727,20.984538 Z" id="Stroke-64" stroke="#5F2EB1" stroke-width="0.5" stroke-linecap="round"></path>
                    <path d="M0.0260592381,5.85473344 C1.16485341,5.23914012 2.42930009,4.9143022 3.74591987,4.9143022 C6.52174773,4.9143022 9.11073577,6.40708087 10.6712853,8.90740168 C11.3108384,9.93198508 10.9682987,11.2626962 9.9061708,11.8796949 C8.84440708,12.4966059 7.46477893,12.166234 6.82531691,11.1415627 C6.0732229,9.93655284 4.95072714,9.24550366 3.74591987,9.24550366 C2.77830449,9.24550366 1.84592644,9.70113759 1.12060187,10.5285168" id="Fill-66" fill="#F3CBBC"></path>
                    <path d="M10.7862665,10.6238248 C10.7489349,11.0902633 11.1429193,9.61979635 10.5329583,8.69262918 C9.69991857,7.42656946 7.7126968,5.78929151 6.40290595,5.40674172 C2.43565555,4.24811217 0.167991944,6.00810472 0.167991944,6.00810472 C0.0899599136,6.06871536 0.101341482,6.08698639 0.193395604,6.04877534 C0.193395604,6.04877534 3.76028797,4.56741607 7.01232063,6.69555239 C9.99847987,8.64967468 10.7862665,10.6238248 10.7862665,10.6238248" id="Fill-68" fill="#FEFEFE" opacity="0.6"></path>
                    <path d="M0.0260592381,5.85473344 C1.16485341,5.23914012 2.42930009,4.9143022 3.74591987,4.9143022 C6.52174773,4.9143022 9.11073577,6.40708087 10.6712853,8.90740168 C11.3108384,9.93198508 10.9682987,11.2626962 9.9061708,11.8796949 C8.84440708,12.4966059 7.46477893,12.166234 6.82531691,11.1415627 C6.0732229,9.93655284 4.95072714,9.24550366 3.74591987,9.24550366 C2.77830449,9.24550366 1.84592644,9.70113759 1.12060187,10.5285168" id="Stroke-75" stroke="#5F2EB1" stroke-width="0.84" stroke-linecap="round"></path>
                    <path d="M8.53711385,6.78337634 C8.53711385,6.78337634 9.98867351,8.1633665 10.2232249,8.37172657 C10.3899421,8.52000304 10.5765998,8.73784999 10.2504496,9.05039009 L10.0563255,9.26911546 C9.40721196,9.8384163 8.87473668,9.49557088 8.33852825,8.95323738 L7.99526016,8.61987884 C7.18134147,7.75595756 7.30499082,7.96449331 8.53711385,6.78337634" id="Fill-77" fill="#EDEDEC"></path>
                    <path d="M8.53711385,6.78337634 C8.53711385,6.78337634 9.98867351,8.1633665 10.2232249,8.37172657 C10.3899421,8.52000304 10.5765998,8.73784999 10.2504496,9.05039009 L10.0563255,9.26911546 C9.40721196,9.8384163 8.87473668,9.49557088 8.33852825,8.95323738 L7.99526016,8.61987884 C7.18134147,7.75595756 7.30499082,7.96449331 8.53711385,6.78337634 Z" id="Stroke-79" stroke="#5F2EB1" stroke-width="0.5" stroke-linecap="round"></path>
                </g>
            </g>
            <path d="M81.1001541,81.8814139 C79.9264127,82.4955804 78.5936563,82.8425061 77.1807276,82.8425061 C72.4659881,82.8425061 68.6439365,78.9796249 68.6439365,74.2145195 C68.6439365,69.4494141 72.4659881,65.5865329 77.1807276,65.5865329 C81.6305914,65.5865329 85.2852527,69.0275701 85.6818483,73.4204714 C85.6931444,73.5149076 85.7037725,73.6152134 85.713734,73.7216999 C85.9837475,76.6081019 86.1930106,78.3971248 85.713734,82.4919828 C85.2344573,86.5868409 82.0515583,92 77.2215678,92 C75.3291084,92 73.5425942,91.2491496 72.0985978,89.9188643 C71.1562751,89.0507471 71.0886812,87.574935 71.9476226,86.6225457 C72.8065641,85.6701565 74.2667773,85.6018405 75.2091,86.4699577 C75.8304543,87.0423819 76.5226649,87.3333097 77.2215678,87.3333097 C79.2551904,87.3333097 81.1001541,85.0188531 81.1001541,81.919949 L81.1001541,81.8814139 Z M60.6810726,81.8814139 C59.5073312,82.4955804 58.1745749,82.8425061 56.7616461,82.8425061 C52.0469066,82.8425061 48.224855,78.9796249 48.224855,74.2145195 C48.224855,69.4494141 52.0469066,65.5865329 56.7616461,65.5865329 C61.2115099,65.5865329 64.8661713,69.0275701 65.2627668,73.4204714 C65.2740629,73.5149076 65.2846911,73.6152134 65.2946525,73.7216999 C65.5646661,76.6081019 65.7739292,78.3971248 65.2946525,82.4919828 C64.8153759,86.5868409 61.6324768,92 56.8024863,92 C54.910027,92 53.1235128,91.2491496 51.6795164,89.9188643 C50.7371936,89.0507471 50.6695997,87.574935 51.5285412,86.6225457 C52.3874827,85.6701565 53.8476958,85.6018405 54.7900186,86.4699577 C55.4113728,87.0423819 56.1035834,87.3333097 56.8024863,87.3333097 C58.836109,87.3333097 60.6810726,85.0188531 60.6810726,81.919949 L60.6810726,81.8814139 Z M24.3449123,69.0560423 L33.8704128,76.7696404 L33.8704128,76.7696404 C35.2320496,77.8722722 35.4420147,79.8699565 34.3393829,81.2315933 C33.2367512,82.5932301 31.2390669,82.8031952 29.8774301,81.7005634 L24.3449123,77.2204189 L24.3449123,79.3607702 L24.3449123,79.3607702 C24.3449123,81.1128694 22.9245553,82.5332264 21.1724562,82.5332264 L21.1724562,82.5332264 C19.420357,82.5332264 18,81.1128694 18,79.3607702 L18,62.2140592 L18,62.2140592 C18,60.46196 19.420357,59.041603 21.1724562,59.041603 C22.9245553,59.041603 24.3449123,60.46196 24.3449123,62.2140592 L24.3449123,69.0560423 Z M41.5915376,66.9890179 C43.3436368,66.9890179 44.7639938,68.4093749 44.7639938,70.1614741 L44.7639938,79.3607702 C44.7639938,81.1128694 43.3436368,82.5332264 41.5915376,82.5332264 C39.8394385,82.5332264 38.4190815,81.1128694 38.4190815,79.3607702 L38.4190815,70.1614741 C38.4190815,68.4093749 39.8394385,66.9890179 41.5915376,66.9890179 Z M41.5915376,59.041603 C43.3436368,59.041603 44.7639938,60.46196 44.7639938,62.2140592 L44.7639938,62.4140768 C44.7639938,64.1661759 43.3436368,65.5865329 41.5915376,65.5865329 C39.8394385,65.5865329 38.4190815,64.1661759 38.4190815,62.4140768 L38.4190815,62.2140592 C38.4190815,60.46196 39.8394385,59.041603 41.5915376,59.041603 Z M33.8316135,59.7070998 L33.8316135,59.7070998 C35.1932503,60.8097315 35.4032154,62.8074158 34.3005837,64.1690526 L31.8946265,67.1401623 L31.8946265,67.1401623 C30.7919948,68.501799 28.7943105,68.7117641 27.4326737,67.6091324 L27.4326737,67.6091324 L27.4326737,67.6091324 C26.0710369,66.5065007 25.8610718,64.5088163 26.9637035,63.1471796 L29.3696607,60.1760699 C30.4722924,58.8144331 32.4699768,58.604468 33.8316135,59.7070998 L33.8316135,59.7070998 Z M56.7669796,77.1599249 C58.3735427,77.1599249 59.6759193,75.8436354 59.6759193,74.21991 C59.6759193,72.5961846 58.3735427,71.2798951 56.7669796,71.2798951 C55.1604166,71.2798951 53.8580399,72.5961846 53.8580399,74.21991 C53.8580399,75.8436354 55.1604166,77.1599249 56.7669796,77.1599249 Z M77.1860611,77.1599249 C78.7926241,77.1599249 80.0950008,75.8436354 80.0950008,74.21991 C80.0950008,72.5961846 78.7926241,71.2798951 77.1860611,71.2798951 C75.579498,71.2798951 74.2771213,72.5961846 74.2771213,74.21991 C74.2771213,75.8436354 75.579498,77.1599249 77.1860611,77.1599249 Z" id="Combined-Shape" fill="#5F2EB1"></path>
        </g>
    </g>
</svg>